# xmcd
#
# Track frame offsets: 
#        150
#        10735
#        22848
#        33302
#        45452
#        59668
#        78756
#        89003
#        99475
#        109960
#        124742
#        138658
#        153360
#        168937
#        185104
#        205817
#        219312
#        234249
#        247599
#        265295
#
# Disc length: 3722 seconds
#
# Revision: 4
# Processed by: cddbd v1.5.2PL0 Copyright (c) Steve Scherf et al.
# Submitted via: ExactAudioCopyFreeDBPlugin 1.0
#
DISCID=040e8814
DTITLE=B.B. King - B.B. King:  Eight Classic Albums [Real Gone Music]
DYEAR=2014
DGENRE=Blues
TTITLE0=Bad Case of Love
TTITLE1=Get Out of Here
TTITLE2=Sad Luck Soul
TTITLE3=Shut Your Mouth
TTITLE4=Baby Look at You
TTITLE5=You're Breaking My Heart
TTITLE6=My Reward
TTITLE7=Don't Cry Anymore
TTITLE8=Blues for Me
TTITLE9=Just Like a Woman
TTITLE10=Cotton Tail
TTITLE11=Solitude
TTITLE12=Jack the Bear
TTITLE13=Sophisticated Lady
TTITLE14=Jeep Blues
TTITLE15=Take the "A" Train
TTITLE16=Don't Get Around Much Anymore
TTITLE17=Main Stem
TTITLE18=Mood Indigo
TTITLE19=Eastside, Westside
EXTD=
EXTT0=
EXTT1=
EXTT2=
EXTT3=
EXTT4=
EXTT5=
EXTT6=
EXTT7=
EXTT8=
EXTT9=
EXTT10=
EXTT11=
EXTT12=
EXTT13=
EXTT14=
EXTT15=
EXTT16=
EXTT17=
EXTT18=
EXTT19=
PLAYORDER=
